<svg width="14" height="14" viewBox="0 0 14 14" fill="none" xmlns="http://www.w3.org/2000/svg">
<g clip-path="url(#clip0_26_715)">
<path d="M6.99967 0.583313C3.45592 0.583313 0.583008 3.45623 0.583008 6.99998C0.583008 8.55281 1.13484 9.97731 2.05301 11.0868L1.00577 12.9709C0.894625 13.1709 1.03921 13.4166 1.26799 13.4166H6.99967C10.5434 13.4166 13.4163 10.5437 13.4163 6.99998C13.4163 3.45623 10.5434 0.583313 6.99967 0.583313ZM7.58301 6.75848L9.16209 8.33756C9.38986 8.56533 9.38986 8.93462 9.16209 9.1624C8.93432 9.39017 8.56503 9.39017 8.33726 9.1624L6.41634 7.24148V3.79165C6.41634 3.46948 6.67751 3.20831 6.99967 3.20831C7.32184 3.20831 7.58301 3.46948 7.58301 3.79165V6.75848Z" fill="#204496"/>
</g>
<defs>
<clipPath id="clip0_26_715">
<rect width="14" height="14" fill="white"/>
</clipPath>
</defs>
</svg>
